<svg width="24" height="24" viewBox="0 0 24 24" fill="none" xmlns="http://www.w3.org/2000/svg">
<path d="M1 12C1 5.92487 5.92487 1 12 1C12.5523 1 13 1.44772 13 2V11H22C22.5523 11 23 11.4477 23 12C23 18.0751 18.0751 23 12 23C5.92487 23 1 18.0751 1 12Z" fill="#919EAB"/>
<path d="M14.4082 1.6519C14.6649 1.4635 14.9959 1.40857 15.2996 1.50397C18.7218 2.57879 21.4215 5.27849 22.4963 8.70061C22.5917 9.00435 22.5367 9.33537 22.3483 9.59201C22.1599 9.84865 21.8606 10.0003 21.5422 10.0003H15C14.4477 10.0003 14 9.55254 14 9.00025V2.45802C14 2.13964 14.1516 1.8403 14.4082 1.6519Z" fill="#919EAB"/>
</svg>
