<svg width="24" height="24" viewBox="0 0 24 24" fill="none" xmlns="http://www.w3.org/2000/svg">
<path fill-rule="evenodd" clip-rule="evenodd" d="M3 3C1.89543 3 1 3.89543 1 5V19C1 20.1046 1.89543 21 3 21H21C22.1046 21 23 20.1046 23 19V5C23 3.89543 22.1046 3 21 3H3ZM3 5H21V19H3V5Z" fill="#919EAB"/>
<path fill-rule="evenodd" clip-rule="evenodd" d="M21 5H3V19H21V5ZM17 12.5C17 11.9477 16.5523 11.5 16 11.5C15.4477 11.5 15 11.9477 15 12.5V16C15 16.5523 15.4477 17 16 17C16.5523 17 17 16.5523 17 16V12.5ZM12 7C12.5523 7 13 7.44772 13 8V16C13 16.5523 12.5523 17 12 17C11.4477 17 11 16.5523 11 16V8C11 7.44772 11.4477 7 12 7ZM9 10C9 9.44772 8.55228 9 8 9C7.44772 9 7 9.44772 7 10V16C7 16.5523 7.44772 17 8 17C8.55228 17 9 16.5523 9 16V10Z" fill="#919EAB"/>
</svg>
