<svg width="24" height="24" viewBox="0 0 24 24" fill="none" xmlns="http://www.w3.org/2000/svg">
<path d="M20.9995 6.54825C20.9922 6.45056 20.9104 6.375 20.8125 6.375H17.4375V5.4375C17.4375 2.43919 14.9982 0 12 0C9.00191 0 6.56254 2.43919 6.56254 5.4375V6.375H3.18754C3.08966 6.375 3.00791 6.45056 3.0006 6.54825L1.6881 23.7983C1.68416 23.8502 1.70197 23.9016 1.7376 23.9398C1.77304 23.9783 1.82291 24 1.87504 24H22.125C22.1772 24 22.227 23.9783 22.2625 23.94C22.2979 23.9018 22.3159 23.8504 22.312 23.7984L20.9995 6.54825ZM8.06254 5.4375C8.06254 3.26644 9.82879 1.5 12 1.5C14.1713 1.5 15.9375 3.26644 15.9375 5.4375V6.375H8.06254V5.4375ZM7.31254 11.625C6.27847 11.625 5.43754 10.7839 5.43754 9.75C5.43754 9.00169 5.81254 8.32744 6.56254 8.03156V9.75C6.56254 10.1636 6.8991 10.5 7.31254 10.5C7.72597 10.5 8.06254 10.1636 8.06254 9.75V8.03269C8.81254 8.32856 9.18754 9.00788 9.18754 9.75C9.18754 10.7839 8.3466 11.625 7.31254 11.625ZM16.6875 11.625C15.6535 11.625 14.8125 10.7839 14.8125 9.75C14.8125 9.00169 15.1875 8.32744 15.9375 8.03156V9.75C15.9375 10.1636 16.2741 10.5 16.6875 10.5C17.101 10.5 17.4375 10.1636 17.4375 9.75V8.03269C18.1875 8.32856 18.5625 9.00788 18.5625 9.75C18.5625 10.7839 17.7216 11.625 16.6875 11.625Z" fill="#919EAB"/>
</svg>
